<svg xmlns="http://www.w3.org/2000/svg" viewBox="0 0 184.25 362.83"><defs><style>.cls-1{fill:#119eff;}.cls-2,.cls-3{fill:none;stroke-linecap:round;}.cls-2{stroke:#141414;}.cls-2,.cls-3,.cls-4{stroke-miterlimit:10;}.cls-3{stroke:#fff;stroke-width:3px;}.cls-4{fill:#fcea10;stroke:#000;stroke-width:0.75px;}</style></defs><g id="Layer_2" data-name="Layer 2"><rect x="7.09" y="185.67" width="170.08" height="170.08"/><rect class="cls-1" x="61.62" y="5.98" width="61.02" height="16.77"/></g><g id="Layer_1" data-name="Layer 1"><circle class="cls-2" cx="92.39" cy="270.38" r="76.54"/><polyline class="cls-3" points="92.39 215.86 92.39 215.86 92.39 215.86 86.71 216.38 86.71 216.38 81.15 217.5 81.15 217.5 75.75 219.18 75.75 219.18 70.58 221.4 70.58 221.4 65.69 224.15 65.69 224.15 61.14 227.38 61.14 227.38 56.97 231.04 56.97 231.04 53.22 235.11 53.22 235.11 49.94 239.53 49.94 239.53 47.14 244.26 47.14 244.26 44.87 249.22 44.87 249.22 43.13 254.37 43.13 254.37 41.95 259.66 41.95 259.66 41.33 265.01 41.33 265.01 41.28 270.38 41.28 270.38 41.78 275.7 41.78 275.7 42.84 280.91 42.84 280.91 44.43 285.96 44.43 285.96 46.52 290.8 46.52 290.8 49.11 295.37 49.11 295.37 52.14 299.62 52.14 299.62 55.59 303.51 55.59 303.51 59.4 307.01 59.4 307.01 63.55 310.07 63.55 310.07 67.97 312.67 67.97 312.67 72.61 314.79 72.61 314.79 77.44 316.39 77.44 316.39 82.37 317.48 82.37 317.48 87.38 318.04 87.38 318.04 92.39 318.08 92.39 318.08 97.35 317.59 97.35 317.59 102.21 316.59 102.21 316.59 106.92 315.1 106.92 315.1 111.42 313.13 111.42 313.13 115.67 310.7 115.67 310.7 119.63 307.87 119.63 307.87 123.24 304.64 123.24 304.64 126.49 301.08 126.49 301.08 129.33 297.22 129.33 297.22 131.74 293.09 131.74 293.09 133.69 288.76 133.69 288.76 135.16 284.27 135.16 284.27 136.16 279.68 136.16 279.68 136.67 275.03 136.67 275.03 136.68 270.38 136.68 270.38 136.22 265.77 136.22 265.77 135.27 261.26 135.27 261.26 133.87 256.9 133.87 256.9 132.02 252.73 132.02 252.73 129.76 248.79 129.76 248.79 127.12 245.14 127.12 245.14 124.12 241.8 124.12 241.8 120.81 238.81 120.81 238.81 117.22 236.19 117.22 236.19 113.4 233.98 113.4 233.98 109.39 232.19 109.39 232.19 105.23 230.84 105.23 230.84 100.98 229.94 100.98 229.94 96.69 229.49 96.69 229.49 92.39 229.49 92.39 229.49 88.14 229.94 88.14 229.94 83.98 230.82 83.98 230.82 79.96 232.14 79.96 232.14 76.13 233.85 76.13 233.85 72.51 235.95 72.51 235.95 69.15 238.4 69.15 238.4 66.09 241.17 66.09 241.17 63.35 244.24 63.35 244.24 60.96 247.55 60.96 247.55 58.94 251.07 58.94 251.07 57.32 254.76 57.32 254.76 56.09 258.58 56.09 258.58 55.28 262.49 55.28 262.49 54.88 266.44 54.88 266.44 54.91 270.38 54.91 270.38 55.34 274.27 55.34 274.27 56.17 278.08 56.17 278.08 57.39 281.75 57.39 281.75 58.97 285.25 58.98 285.25 60.91 288.55 60.91 288.55 63.17 291.61 63.17 291.61 65.72 294.39 65.72 294.39 68.53 296.88 68.53 296.88 71.56 299.05 71.56 299.05 74.78 300.87 74.78 300.87 78.16 302.33 78.16 302.33 81.65 303.43 81.65 303.43 85.21 304.15 85.21 304.15 88.8 304.49 88.8 304.49 92.39 304.45 92.39 304.45 95.92 304.04 95.92 304.04 99.38 303.26 99.38 303.26 102.7 302.13 102.7 302.13 105.88 300.68 105.88 300.68 108.86 298.9 108.86 298.9 111.61 296.84 111.61 296.84 114.12 294.52 114.12 294.52 116.36 291.96 116.36 291.96 118.3 289.2 118.3 289.2 119.93 286.28 119.93 286.28 121.23 283.22 121.23 283.22 122.2 280.06 122.2 280.06 122.83 276.85 122.83 276.85 123.11 273.61 123.11 273.61 123.05 270.38 123.05 270.38 122.66 267.19 122.66 267.19 121.94 264.1 121.94 264.1 120.9 261.11 120.9 261.11 119.57 258.27 119.57 258.27 117.96 255.61 117.96 255.61 116.09 253.15 116.09 253.15 114 250.92 114 250.92 111.69 248.94 111.69 248.94 109.21 247.22 109.21 247.22 106.58 245.79 106.58 245.79 103.85 244.64 103.85 244.64 101.02 243.81 101.02 243.81 98.15 243.27 98.15 243.27 95.26 243.04 95.26 243.04 92.39 243.12 92.39 243.12 89.56 243.5 89.56 243.5 86.81 244.16 86.81 244.16 84.17 245.1 84.17 245.1 81.67 246.31 81.67 246.31 79.32 247.75 79.32 247.75 77.16 249.42 77.16 249.42 75.21 251.3 75.21 251.3 73.48 253.35 73.48 253.35 71.99 255.56 71.99 255.56 70.75 257.88 70.75 257.88 69.77 260.31 69.77 260.31 69.05 262.8 69.05 262.8 68.61 265.32 68.61 265.32 68.44 267.86 68.44 267.86 68.53 270.38 68.53 270.38 68.89 272.85 68.89 272.85 69.5 275.24 69.5 275.24 70.35 277.54 70.35 277.54 71.43 279.71 71.43 279.71 72.71 281.74 72.71 281.74 74.19 283.6 74.19 283.6 75.84 285.28 75.84 285.28 77.64 286.75 77.64 286.75 79.57 288.02 79.57 288.02 81.6 289.07 81.6 289.07 83.7 289.88 83.7 289.88 85.86 290.47 85.86 290.47 88.04 290.82 88.04 290.82 90.23 290.94 90.23 290.94 92.39 290.82 92.39 290.82 94.5 290.49 94.5 290.49 96.54 289.93 96.54 289.93 98.49 289.17 98.49 289.17 100.33 288.22 100.33 288.22 102.04 287.1 102.04 287.1 103.61 285.81 103.61 285.81 105 284.39 105 284.39 106.23 282.84 106.23 282.84 107.28 281.19 107.28 281.19 108.12 279.46 108.12 279.46 108.78 277.67 108.78 277.67 109.24 275.85 109.24 275.85 109.5 274.01 109.5 274.01 109.56 272.18 109.56 272.18 109.42 270.38 109.42 270.38 109.1 268.62 109.1 268.62 108.61 266.93 108.61 266.93 107.94 265.32 107.94 265.32 107.12 263.82 107.12 263.82 106.16 262.43 106.16 262.43 105.07 261.17 105.07 261.17 103.87 260.04 103.87 260.04 102.57 259.06 102.57 259.06 101.2 258.25 101.2 258.25 99.77 257.59 99.77 257.59 98.3 257.09 98.3 257.09 96.81 256.77 96.81 256.77 95.32 256.6 95.32 256.6 93.83 256.6 93.83 256.6 92.39 256.75 92.39 256.75"/></g><g id="Layer_3" data-name="Layer 3"><path class="cls-4" d="M178.84,3H5.93A2.83,2.83,0,0,0,3.1,5.88V357.37a2.83,2.83,0,0,0,2.83,2.84H178.84a2.84,2.84,0,0,0,2.84-2.84V5.88A2.84,2.84,0,0,0,178.84,3ZM92.45,10.26a4.21,4.21,0,1,1-4.21,4.21A4.21,4.21,0,0,1,92.45,10.26Zm-.06,336.86a76.54,76.54,0,1,1,76.54-76.54A76.53,76.53,0,0,1,92.39,347.12Z"/></g></svg>