<svg xmlns="http://www.w3.org/2000/svg" viewBox="0 0 184.25 362.83"><defs><style>.cls-1{fill:#119eff;}.cls-2{fill:#fff;}.cls-3{fill:#fcea10;stroke:#000;stroke-miterlimit:10;stroke-width:0.75px;}</style></defs><g id="Layer_2" data-name="Layer 2"><rect class="cls-1" x="61.62" y="5.98" width="61.02" height="16.77"/><rect class="cls-2" x="8.01" y="185.67" width="170.08" height="170.08"/></g><g id="Layer_1" data-name="Layer 1"><path d="M15.59,270.38a76.53,76.53,0,0,0,76.54,76.53V270.38H15.59Z"/><path d="M92.13,270.38V193.84a76.54,76.54,0,0,1,76.54,76.54H92.13"/></g><g id="Layer_3" data-name="Layer 3"><path class="cls-3" d="M92.13,346.91a76.54,76.54,0,1,1,76.54-76.53A76.53,76.53,0,0,1,92.13,346.91ZM178.58,2.83H5.67A2.83,2.83,0,0,0,2.83,5.67v351.5A2.84,2.84,0,0,0,5.67,360H178.58a2.84,2.84,0,0,0,2.84-2.83V5.67A2.84,2.84,0,0,0,178.58,2.83ZM92.19,10.05A4.21,4.21,0,1,1,88,14.26,4.21,4.21,0,0,1,92.19,10.05Zm-.06,260.33Z"/></g></svg>